<svg width="12" height="6" viewBox="0 0 12 6" fill="none" xmlns="http://www.w3.org/2000/svg">
<path d="M0.295513 0.244303C0.201875 0.32109 0.127553 0.412446 0.0768329 0.513101C0.0261132 0.613756 0 0.721717 0 0.830758C0 0.939799 0.0261132 1.04776 0.0768329 1.14842C0.127553 1.24907 0.201875 1.34043 0.295513 1.41721L5.29069 5.54718C5.38356 5.6246 5.49405 5.68604 5.6158 5.72798C5.73754 5.76991 5.86812 5.7915 6 5.7915C6.13188 5.7915 6.26246 5.76991 6.38421 5.72798C6.50595 5.68604 6.61644 5.6246 6.70931 5.54718L11.7045 1.41721C11.7981 1.34043 11.8724 1.24907 11.9232 1.14842C11.9739 1.04776 12 0.939799 12 0.830758C12 0.721717 11.9739 0.613756 11.9232 0.513101C11.8724 0.412446 11.7981 0.32109 11.7045 0.244303C11.6116 0.166884 11.5011 0.105435 11.3794 0.0635009C11.2576 0.0215664 11.1271 -2.38419e-05 10.9952 -2.38419e-05C10.8633 -2.38419e-05 10.7327 0.0215664 10.611 0.0635009C10.4892 0.105435 10.3787 0.166884 10.2859 0.244303L6 3.79607L1.71414 0.244303C1.62127 0.166884 1.51077 0.105435 1.38903 0.0635009C1.26729 0.0215664 1.13671 -2.38419e-05 1.00483 -2.38419e-05C0.872943 -2.38419e-05 0.742363 0.0215664 0.620622 0.0635009C0.49888 0.105435 0.388386 0.166884 0.295513 0.244303Z" fill="#034EA2"/>
</svg>
