<svg width="24" height="25" viewBox="0 0 24 25" fill="none" xmlns="http://www.w3.org/2000/svg">
<path d="M12.741 8.25767C12.9927 7.92874 12.9302 7.45801 12.6013 7.20625C12.2723 6.95449 11.8016 7.01705 11.5498 7.34597L12.1454 7.80182L12.741 8.25767ZM6.27813 15.4674L6.85712 15.9442C6.86277 15.9373 6.8683 15.9303 6.8737 15.9233L6.27813 15.4674ZM6.10802 15.9029L5.35935 15.8562L5.35875 15.8697L6.10802 15.9029ZM5.96875 19.0518L5.21948 19.0187C5.21791 19.0543 5.21887 19.0899 5.22236 19.1253L5.96875 19.0518ZM6.75165 19.7674L6.77732 20.517C6.8296 20.5152 6.88154 20.508 6.9323 20.4954L6.75165 19.7674ZM9.73603 19.0268L9.9167 19.7548L9.92878 19.7516L9.73603 19.0268ZM10.119 18.7727L10.7082 19.2368L10.7145 19.2287L10.119 18.7727ZM16.723 11.3828C16.9749 11.054 16.9124 10.5832 16.5836 10.3314C16.2547 10.0795 15.784 10.142 15.5321 10.4708L16.1276 10.9268L16.723 11.3828ZM11.553 7.34577C11.3011 7.67461 11.3635 8.14537 11.6923 8.39723C12.0212 8.6491 12.4919 8.5867 12.7438 8.25786L12.1484 7.80182L11.553 7.34577ZM13.7281 5.73932L14.3235 6.19536C14.333 6.18303 14.3421 6.1704 14.3507 6.1575L13.7281 5.73932ZM15.3486 5.40598L15.8414 4.8406C15.8177 4.81991 15.7927 4.80074 15.7665 4.7832L15.3486 5.40598ZM17.574 7.34557L18.1169 6.82808C18.1009 6.81135 18.0842 6.79537 18.0668 6.78018L17.574 7.34557ZM17.9092 8.20065L18.6592 8.20458L18.6592 8.20458L17.9092 8.20065ZM17.565 9.05182L17.0279 8.5284C17.0072 8.5496 16.9878 8.57201 16.9698 8.5955L17.565 9.05182ZM15.5324 10.4705C15.2803 10.7992 15.3425 11.27 15.6712 11.522C16 11.774 16.4708 11.7119 16.7228 11.3831L16.1276 10.9268L15.5324 10.4705ZM12.8908 7.69557C12.8322 7.28553 12.4522 7.0007 12.0421 7.05938C11.6321 7.11806 11.3473 7.49803 11.406 7.90807L12.1484 7.80182L12.8908 7.69557ZM16.2332 11.6693C16.6433 11.611 16.9284 11.2313 16.8701 10.8212C16.8117 10.4111 16.432 10.1259 16.0219 10.1843L16.1276 10.9268L16.2332 11.6693ZM12.1454 7.80182L11.5498 7.34597L5.68256 15.0116L6.27813 15.4674L6.8737 15.9233L12.741 8.25767L12.1454 7.80182ZM6.27813 15.4674L5.69914 14.9907C5.49631 15.2371 5.37909 15.5412 5.35947 15.8562L6.10802 15.9029L6.85657 15.9495C6.85674 15.9467 6.85731 15.9447 6.85776 15.9436C6.85821 15.9424 6.85829 15.9427 6.85712 15.9442L6.27813 15.4674ZM6.10802 15.9029L5.35875 15.8697L5.21948 19.0187L5.96875 19.0518L6.71802 19.085L6.85729 15.936L6.10802 15.9029ZM5.96875 19.0518L5.22236 19.1253C5.29929 19.9064 5.95311 20.5452 6.77732 20.517L6.75165 19.7674L6.72598 19.0179C6.72812 19.0178 6.73116 19.0183 6.73342 19.0192C6.73516 19.0198 6.73423 19.0199 6.73163 19.0175C6.72645 19.0127 6.71736 19.0009 6.71514 18.9783L5.96875 19.0518ZM6.75165 19.7674L6.9323 20.4954L9.91667 19.7547L9.73603 19.0268L9.55538 18.2989L6.57101 19.0395L6.75165 19.7674ZM9.73603 19.0268L9.92878 19.7516C10.2401 19.6688 10.5118 19.486 10.7082 19.2368L10.119 18.7727L9.52988 18.3085C9.52896 18.3097 9.53242 18.3049 9.54327 18.302L9.73603 19.0268ZM10.119 18.7727L10.7145 19.2287L16.723 11.3828L16.1276 10.9268L15.5321 10.4708L9.52357 18.3166L10.119 18.7727ZM12.1484 7.80182L12.7438 8.25786L14.3235 6.19536L13.7281 5.73932L13.1327 5.28327L11.553 7.34577L12.1484 7.80182ZM13.7281 5.73932L14.3507 6.1575C14.4945 5.94341 14.7465 5.90513 14.9307 6.02877L15.3486 5.40598L15.7665 4.7832C14.8743 4.18445 13.6973 4.4401 13.1055 5.32113L13.7281 5.73932ZM15.3486 5.40598L14.8559 5.97137L17.0812 7.91096L17.574 7.34557L18.0668 6.78018L15.8414 4.8406L15.3486 5.40598ZM17.574 7.34557L17.0311 7.86305C17.1101 7.94587 17.1599 8.06542 17.1592 8.19671L17.9092 8.20065L18.6592 8.20458C18.6618 7.695 18.4703 7.19886 18.1169 6.82808L17.574 7.34557ZM17.9092 8.20065L17.1592 8.19671C17.1585 8.32799 17.1074 8.44674 17.0279 8.5284L17.565 9.05182L18.1022 9.57523C18.4597 9.20831 18.6565 8.71418 18.6592 8.20458L17.9092 8.20065ZM17.565 9.05182L16.9698 8.5955L15.5324 10.4705L16.1276 10.9268L16.7228 11.3831L18.1602 9.50814L17.565 9.05182ZM12.1484 7.80182L11.406 7.90807C11.7472 10.2925 13.8735 12.0051 16.2332 11.6693L16.1276 10.9268L16.0219 10.1843C14.543 10.3947 13.1237 9.32285 12.8908 7.69557L12.1484 7.80182Z" fill="#034EA2"/>
</svg>
