<svg width="24" height="25" viewBox="0 0 24 25" fill="none" xmlns="http://www.w3.org/2000/svg">
<path fill-rule="evenodd" clip-rule="evenodd" d="M16.0828 9.37512H7.79216C7.33451 9.37512 6.9635 9.76361 6.9635 10.2428V17.1876C6.9635 18.6259 8.07696 19.7918 9.45048 19.7918H14.4244C15.084 19.7918 15.7166 19.5174 16.183 19.029C16.6494 18.5407 16.9114 17.8783 16.9114 17.1876V10.2428C16.9114 9.76361 16.5404 9.37512 16.0828 9.37512Z" stroke="#E32A34" stroke-width="1.5" stroke-linecap="round" stroke-linejoin="round"/>
<path fill-rule="evenodd" clip-rule="evenodd" d="M14.9219 7.29173L14.8164 7.07194C14.2712 5.9298 13.1564 5.20831 11.937 5.20831C10.7176 5.20831 9.60282 5.9298 9.05758 7.07194L8.95312 7.29173H14.9219Z" stroke="#E32A34" stroke-width="1.5" stroke-linecap="round" stroke-linejoin="round"/>
<path d="M11.0291 12.847C11.0291 12.4328 10.6934 12.097 10.2791 12.097C9.86493 12.097 9.52914 12.4328 9.52914 12.847H10.2791H11.0291ZM9.52914 16.3189C9.52914 16.7331 9.86493 17.0689 10.2791 17.0689C10.6934 17.0689 11.0291 16.7331 11.0291 16.3189H10.2791H9.52914ZM14.3458 12.847C14.3458 12.4328 14.01 12.097 13.5958 12.097C13.1816 12.097 12.8458 12.4328 12.8458 12.847H13.5958H14.3458ZM12.8458 16.3189C12.8458 16.7331 13.1816 17.0689 13.5958 17.0689C14.01 17.0689 14.3458 16.7331 14.3458 16.3189H13.5958H12.8458ZM14.9218 6.54181C14.5076 6.54181 14.1718 6.8776 14.1718 7.29181C14.1718 7.70602 14.5076 8.04181 14.9218 8.04181V7.29181V6.54181ZM16.9114 8.04181C17.3256 8.04181 17.6614 7.70602 17.6614 7.29181C17.6614 6.8776 17.3256 6.54181 16.9114 6.54181V7.29181V8.04181ZM8.95308 8.04181C9.3673 8.04181 9.70308 7.70602 9.70308 7.29181C9.70308 6.8776 9.3673 6.54181 8.95308 6.54181V7.29181V8.04181ZM6.9635 6.54181C6.54929 6.54181 6.2135 6.8776 6.2135 7.29181C6.2135 7.70602 6.54929 8.04181 6.9635 8.04181V7.29181V6.54181ZM10.2791 12.847H9.52914V16.3189H10.2791H11.0291V12.847H10.2791ZM13.5958 12.847H12.8458V16.3189H13.5958H14.3458V12.847H13.5958ZM14.9218 7.29181V8.04181H16.9114V7.29181V6.54181H14.9218V7.29181ZM8.95308 7.29181V6.54181H6.9635V7.29181V8.04181H8.95308V7.29181Z" fill="#E32A34"/>
</svg>
