<svg width="12" height="6" viewBox="0 0 12 6" fill="none" xmlns="http://www.w3.org/2000/svg">
<path d="M11.7045 5.5472C11.7981 5.47041 11.8724 5.37906 11.9232 5.2784C11.9739 5.17775 12 5.06979 12 4.96075C12 4.85171 11.9739 4.74374 11.9232 4.64309C11.8724 4.54243 11.7981 4.45108 11.7045 4.37429L6.70931 0.244327C6.61644 0.166908 6.50595 0.105459 6.3842 0.0635246C6.26246 0.02159 6.13188 0 6 0C5.86812 0 5.73754 0.02159 5.61579 0.0635246C5.49405 0.105459 5.38356 0.166908 5.29069 0.244327L0.295513 4.37429C0.201875 4.45108 0.127551 4.54243 0.0768309 4.64309C0.0261116 4.74374 0 4.85171 0 4.96075C0 5.06979 0.0261116 5.17775 0.0768309 5.2784C0.127551 5.37906 0.201875 5.47041 0.295513 5.5472C0.388387 5.62462 0.498879 5.68607 0.620621 5.728C0.742363 5.76994 0.872942 5.79153 1.00483 5.79153C1.13671 5.79153 1.26729 5.76994 1.38903 5.728C1.51077 5.68607 1.62127 5.62462 1.71414 5.5472L4.08575 3.58181C5.19606 2.66167 6.80394 2.66167 7.91425 3.58181L10.2859 5.5472C10.3787 5.62462 10.4892 5.68607 10.611 5.728C10.7327 5.76994 10.8633 5.79153 10.9952 5.79153C11.1271 5.79153 11.2576 5.76994 11.3794 5.728C11.5011 5.68607 11.6116 5.62462 11.7045 5.5472Z" fill="#034EA2"/>
</svg>
